<mxfile host="app.diagrams.net" modified="2022-02-07T23:02:10.054Z" agent="5.0 (Windows NT 10.0; Win64; x64) AppleWebKit/537.36 (KHTML, like Gecko) Chrome/97.0.4692.99 Safari/537.36" etag="g6Kf326GdSc3Fo8m9GS_" version="16.5.3" type="github">
  <diagram id="w84YyXzSw_G2lLzz2Ww5" name="Page-1">
    <mxGraphModel dx="1264" dy="533" grid="1" gridSize="10" guides="1" tooltips="1" connect="1" arrows="1" fold="1" page="1" pageScale="1" pageWidth="850" pageHeight="1100" math="0" shadow="0">
      <root>
        <mxCell id="0" />
        <mxCell id="1" parent="0" />
        <mxCell id="Mwrp2TZ75ev8groprRhC-1" value="" style="whiteSpace=wrap;html=1;aspect=fixed;" vertex="1" parent="1">
          <mxGeometry x="240" y="150" width="80" height="80" as="geometry" />
        </mxCell>
        <mxCell id="Mwrp2TZ75ev8groprRhC-2" value="" style="endArrow=classic;html=1;rounded=0;" edge="1" parent="1" source="Mwrp2TZ75ev8groprRhC-1" target="Mwrp2TZ75ev8groprRhC-3">
          <mxGeometry width="50" height="50" relative="1" as="geometry">
            <mxPoint x="360" y="220" as="sourcePoint" />
            <mxPoint x="410" y="190" as="targetPoint" />
          </mxGeometry>
        </mxCell>
        <mxCell id="Mwrp2TZ75ev8groprRhC-3" value="" style="rounded=0;whiteSpace=wrap;html=1;" vertex="1" parent="1">
          <mxGeometry x="410" y="160" width="120" height="60" as="geometry" />
        </mxCell>
      </root>
    </mxGraphModel>
  </diagram>
</mxfile>
